Coordinates
version=1
nRows=28
nColumns=38
inDegrees=no

Units are S.I. units (second, meters, Newtons, ...)
If the header above contains a line with 'inDegrees', this indicates whether rotational values are in degrees (yes) or radians (no).

endheader
time	pelvis_tilt	pelvis_list	pelvis_rotation	pelvis_tx	pelvis_ty	pelvis_tz	hip_flexion_r	hip_adduction_r	hip_rotation_r	knee_angle_r	ankle_angle_r	subtalar_angle_r	mtp_angle_r	hip_flexion_l	hip_adduction_l	hip_rotation_l	knee_angle_l	ankle_angle_l	subtalar_angle_l	mtp_angle_l	lumbar_extension	lumbar_bending	lumbar_rotation	arm_flex_r	arm_add_r	arm_rot_r	elbow_flex_r	pro_sup_r	wrist_flex_r	wrist_dev_r	arm_flex_l	arm_add_l	arm_rot_l	elbow_flex_l	pro_sup_l	wrist_flex_l	wrist_dev_l
5	2.68527	1.39758	-1.11244	0.76601	1.48468	0.939686	0.00750816	0.151523	0.173372	0.539442	-0.132091	0	0	0.307451	-0.261561	-0.338119	0.831873	-0.273222	0	0	-0.325077	0.0923115	0.139814	0.383319	-0.242366	-0.0145925	1.67652	1.5708	0	0	0.627289	-0.385986	0.377754	1.34435	1.5708	0	0
5.01	2.61917	1.41465	-1.04708	0.765753	1.48954	0.938908	0.0235144	0.152714	0.174986	0.537374	-0.131465	0	0	0.334561	-0.25534	-0.32732	0.795915	-0.266041	0	0	-0.296306	0.104869	0.15454	0.370706	-0.246308	-0.0244958	1.67705	1.5708	0	0	0.634238	-0.362577	0.340306	1.38125	1.5708	0	0
5.02	2.59818	1.42016	-1.026	0.765853	1.4935	0.938226	0.027107	0.152974	0.174466	0.540546	-0.128066	0	0	0.347725	-0.248693	-0.316664	0.76346	-0.256977	0	0	-0.291767	0.104168	0.152542	0.373724	-0.244153	-0.0227773	1.67579	1.5708	0	0	0.632072	-0.360253	0.33089	1.38285	1.5708	0	0
5.03	2.5908	1.4232	-1.01827	0.766023	1.49733	0.93782	0.0265372	0.152881	0.173516	0.542159	-0.123082	0	0	0.355533	-0.240182	-0.302478	0.728547	-0.245766	0	0	-0.290572	0.102078	0.15175	0.376177	-0.24211	-0.0226877	1.67488	1.5708	0	0	0.634877	-0.360002	0.329293	1.38222	1.5708	0	0
5.04	2.58712	1.42569	-1.01495	0.76618	1.50112	0.937463	0.0248572	0.152619	0.173581	0.543506	-0.118241	0	0	0.360641	-0.230861	-0.285962	0.691969	-0.233643	0	0	-0.29021	0.0994626	0.152527	0.378067	-0.240623	-0.0237021	1.6745	1.5708	0	0	0.639428	-0.359947	0.330736	1.3805	1.5708	0	0
5.05	2.58791	1.42743	-1.01676	0.766334	1.50485	0.937175	0.0221541	0.151953	0.174107	0.544462	-0.114696	0	0	0.363012	-0.221207	-0.267588	0.654427	-0.222716	0	0	-0.291088	0.0963532	0.15426	0.380215	-0.239696	-0.0255865	1.67412	1.5708	0	0	0.644856	-0.359758	0.333064	1.37843	1.5708	0	0
5.06	2.57787	1.44117	-1.00194	0.766729	1.50781	0.936959	0.0334596	0.146812	0.172258	0.547007	-0.112345	0	0	0.34971	-0.161916	-0.124715	0.542818	-0.200672	0	0	-0.282163	0.0874353	0.150058	0.379978	-0.235885	-0.0293377	1.67324	1.5708	0	0	0.651991	-0.361943	0.338723	1.37556	1.5708	0	0
5.07	2.57404	1.44035	-1.00025	0.766899	1.51181	0.936722	0.0274889	0.147839	0.173133	0.546145	-0.109741	0	0	0.350741	-0.161725	-0.120301	0.515423	-0.19636	0	0	-0.284597	0.0863105	0.152806	0.382195	-0.235193	-0.0308451	1.67344	1.5708	0	0	0.656115	-0.361657	0.339789	1.37491	1.5708	0	0
5.08	2.56554	1.43945	-0.994222	0.766989	1.51595	0.936423	0.0215461	0.149079	0.173517	0.545288	-0.107054	0	0	0.352134	-0.162899	-0.117336	0.491121	-0.193223	0	0	-0.286352	0.0858869	0.15557	0.384194	-0.234767	-0.0320679	1.67359	1.5708	0	0	0.659517	-0.361415	0.340692	1.37475	1.5708	0	0
5.09	2.55724	1.43784	-0.988396	0.766985	1.52012	0.936119	0.0145234	0.150416	0.173604	0.543694	-0.104171	0	0	0.352963	-0.164672	-0.114908	0.469257	-0.190563	0	0	-0.288651	0.086008	0.158274	0.386348	-0.234686	-0.0331023	1.67365	1.5708	0	0	0.662762	-0.361289	0.341745	1.37489	1.5708	0	0
5.1	2.54759	1.4358	-0.98095	0.76696	1.52433	0.935779	0.00650254	0.152126	0.173812	0.540591	-0.101389	0	0	0.354008	-0.167203	-0.113499	0.45069	-0.188531	0	0	-0.290978	0.0866159	0.160717	0.388368	-0.234797	-0.0341676	1.67356	1.5708	0	0	0.665657	-0.3613	0.342741	1.37524	1.5708	0	0
5.11	2.53822	1.43351	-0.973574	0.766858	1.52857	0.93543	-0.00205346	0.153829	0.173885	0.53675	-0.0986961	0	0	0.354838	-0.169952	-0.112751	0.434588	-0.186967	0	0	-0.293254	0.0874983	0.162989	0.390111	-0.234516	-0.0355967	1.67336	1.5708	0	0	0.668195	-0.361186	0.343838	1.37559	1.5708	0	0
5.12	2.52915	1.43127	-0.966322	0.766669	1.53283	0.935066	-0.0103952	0.155175	0.173178	0.533056	-0.0960956	0	0	0.355354	-0.172623	-0.112374	0.419993	-0.185862	0	0	-0.295157	0.0884657	0.1649	0.391488	-0.234137	-0.0368402	1.67308	1.5708	0	0	0.670491	-0.361151	0.345159	1.37599	1.5708	0	0
5.13	2.51934	1.42941	-0.958071	0.766416	1.53711	0.93468	-0.0183409	0.156105	0.172295	0.529019	-0.0937405	0	0	0.356011	-0.175069	-0.112562	0.407124	-0.185257	0	0	-0.296597	0.0893594	0.166324	0.392584	-0.233768	-0.0379049	1.67297	1.5708	0	0	0.672157	-0.361236	0.346058	1.37714	1.5708	0	0
5.14	2.50675	1.42845	-0.946835	0.766109	1.54151	0.934237	-0.0252977	0.156747	0.170992	0.525202	-0.0917309	0	0	0.357345	-0.17722	-0.11294	0.396276	-0.185165	0	0	-0.296629	0.0901232	0.167471	0.393522	-0.233989	-0.0392766	1.67265	1.5708	0	0	0.673271	-0.361219	0.346894	1.37842	1.5708	0	0
5.15	2.49286	1.42788	-0.934203	0.765783	1.54599	0.933788	-0.0317017	0.1576	0.169341	0.522326	-0.0897437	0	0	0.358606	-0.179187	-0.11277	0.386701	-0.185554	0	0	-0.296293	0.0911806	0.1683	0.394436	-0.234035	-0.0402778	1.67265	1.5708	0	0	0.673768	-0.361553	0.347182	1.38014	1.5708	0	0
5.16	2.47973	1.42746	-0.922324	0.76543	1.55055	0.933327	-0.0379727	0.158351	0.16774	0.519708	-0.0871293	0	0	0.358992	-0.180723	-0.111492	0.377041	-0.185931	0	0	-0.295769	0.0921135	0.16911	0.395053	-0.234098	-0.0410906	1.67286	1.5708	0	0	0.673939	-0.361745	0.347269	1.38198	1.5708	0	0
5.17	2.46793	1.42707	-0.912106	0.76509	1.55515	0.932853	-0.0443693	0.159096	0.166882	0.517119	-0.0840958	0	0	0.358555	-0.181996	-0.109523	0.368014	-0.185848	0	0	-0.295262	0.0928049	0.170228	0.395405	-0.234075	-0.0419343	1.67328	1.5708	0	0	0.673983	-0.361952	0.34739	1.3839	1.5708	0	0
5.18	2.4549	1.427	-0.90111	0.764702	1.55985	0.932325	-0.0502278	0.159572	0.167138	0.51471	-0.0811389	0	0	0.35785	-0.183127	-0.107274	0.359828	-0.185229	0	0	-0.294162	0.0935581	0.171808	0.395395	-0.234208	-0.042963	1.67401	1.5708	0	0	0.673692	-0.362093	0.34762	1.38578	1.5708	0	0
5.19	2.43911	1.42729	-0.887935	0.764291	1.56464	0.931755	-0.0550082	0.159841	0.16788	0.513182	-0.0789414	0	0	0.356988	-0.184417	-0.104777	0.352518	-0.18452	0	0	-0.292554	0.0945656	0.173743	0.395152	-0.234449	-0.0437554	1.67518	1.5708	0	0	0.672701	-0.36254	0.347494	1.38852	1.5708	0	0
5.2	2.42215	1.42781	-0.874083	0.763918	1.56954	0.931142	-0.0590105	0.160106	0.168349	0.512797	-0.0768517	0	0	0.355538	-0.185748	-0.101645	0.345833	-0.183956	0	0	-0.290435	0.0954623	0.176015	0.394458	-0.234531	-0.0446093	1.67657	1.5708	0	0	0.6712	-0.363133	0.34715	1.39164	1.5708	0	0
5.21	2.40581	1.42848	-0.861415	0.763514	1.57446	0.930506	-0.0624877	0.160092	0.16881	0.513581	-0.0749476	0	0	0.353613	-0.186926	-0.0989873	0.340323	-0.183697	0	0	-0.288314	0.0962697	0.178739	0.393585	-0.234726	-0.0454933	1.67836	1.5708	0	0	0.669356	-0.363707	0.346685	1.39509	1.5708	0	0
5.22	2.39068	1.42909	-0.850415	0.76309	1.57944	0.929886	-0.0658811	0.159858	0.169599	0.515124	-0.0728305	0	0	0.35061	-0.187887	-0.096456	0.33533	-0.183829	0	0	-0.286441	0.0969536	0.18178	0.392334	-0.235196	-0.0462211	1.68058	1.5708	0	0	0.66714	-0.364333	0.346168	1.39896	1.5708	0	0
5.23	2.3767	1.42961	-0.840842	0.762598	1.5845	0.929302	-0.0695087	0.159355	0.170652	0.516839	-0.0706048	0	0	0.346488	-0.188629	-0.0942174	0.330813	-0.18507	0	0	-0.284769	0.097902	0.184994	0.390761	-0.236078	-0.0465869	1.68303	1.5708	0	0	0.664281	-0.36508	0.345599	1.40322	1.5708	0	0
5.24	2.3656	1.42981	-0.83421	0.762016	1.58962	0.928787	-0.0738432	0.158512	0.171986	0.518499	-0.0679913	0	0	0.340823	-0.189158	-0.0924827	0.326293	-0.189273	0	0	-0.283645	0.0989835	0.188203	0.389296	-0.237563	-0.047037	1.68574	1.5708	0	0	0.660984	-0.366163	0.345242	1.408	1.5708	0	0
5.25	2.35856	1.42961	-0.831449	0.761345	1.59481	0.928342	-0.0791084	0.157392	0.17327	0.519978	-0.0648115	0	0	0.333056	-0.18928	-0.0909592	0.32053	-0.198633	0	0	-0.283228	0.100062	0.191195	0.387671	-0.239268	-0.0473559	1.6889	1.5708	0	0	0.657608	-0.367517	0.345058	1.41314	1.5708	0	0
5.26	2.35488	1.42927	-0.831735	0.760543	1.60007	0.927939	-0.0852229	0.155923	0.174285	0.520784	-0.0619722	0	0	0.32403	-0.188701	-0.0899838	0.314308	-0.210032	0	0	-0.283098	0.101059	0.193789	0.385992	-0.241264	-0.0476051	1.69198	1.5708	0	0	0.654164	-0.36885	0.344947	1.41824	1.5708	0	0
5.27	2.34671	1.4296	-0.827159	0.759628	1.60544	0.927458	-0.0904534	0.154465	0.175081	0.521494	-0.0602746	0	0	0.31618	-0.187624	-0.0896426	0.309048	-0.217323	0	0	-0.281785	0.102306	0.195993	0.383977	-0.243142	-0.0484882	1.69493	1.5708	0	0	0.650433	-0.369968	0.345043	1.42349	1.5708	0	0
